<?xml version='1.0' encoding='utf-8'?>
<svg xmlns="http://www.w3.org/2000/svg" width="200mm" height="100mm" viewBox="0 0 1000000 500000"><defs><style>.C1 {stroke: #ffffff; stroke-width: 1250; stroke-opacity: 1.000; fill: none; fill-opacity: 1.000;}</style><style>.C2 {stroke: none; stroke-width: none; stroke-opacity: 1.000; fill: #ffffff; fill-opacity: 1.000;}</style></defs><rect fill="#212830" x="0" y="0" width="1000000" height="500000" fill-opacity="1.0" /><g stroke-linecap="round" stroke-linejoin="round" fill-rule="evenodd"><path d="M 0 500000 l 1000000 -500000" class="C1" /><path d="M 258078 190000 l 8118 0 l 0 24595 l 29498 0 l 0 -24595 l 8118 0 l 0 60000 l -8118 0 l 0 -28573 l -29498 0 l 0 28573 l -8118 0 l 0 -60000 Z M 358145 225646 l 0 3617 l -33999 0 q 482 7636 4601 11634 q 4119 3999 11474 3999 q 4260 0 8259 -1045 q 3999 -1045 7937 -3135 l 0 6993 q -3979 1688 -8158 2572 q -4180 884 -8480 884 q -10770 0 -17060 -6269 q -6289 -6269 -6289 -16959 q 0 -11052 5968 -17542 q 5968 -6490 16095 -6490 q 9082 0 14367 5847 q 5285 5847 5285 15894 m -7395 -2170 q -80 -6068 -3396 -9685 q -3315 -3617 -8781 -3617 q -6189 0 -9906 3496 q -3717 3496 -4280 9846 l 26363 -40 Z M 370281 187468 l 7395 0 l 0 62532 l -7395 0 l 0 -62532 Z M 393148 187468 l 7395 0 l 0 62532 l -7395 0 l 0 -62532 Z M 433456 210174 q -5948 0 -9404 4642 q -3456 4642 -3456 12719 q 0 8078 3436 12719 q 3436 4642 9424 4642 q 5908 0 9364 -4662 q 3456 -4662 3456 -12699 q 0 -7997 -3456 -12679 q -3456 -4682 -9364 -4682 m 0 -6269 q 9645 0 15151 6269 q 5506 6269 5506 17361 q 0 11052 -5506 17341 q -5506 6289 -15151 6289 q -9685 0 -15171 -6289 q -5486 -6289 -5486 -17341 q 0 -11092 5486 -17361 q 5486 -6269 15171 -6269 Z M 492853 190000 l 8118 0 l 0 53168 l 29216 0 l 0 6832 l -37334 0 l 0 -60000 Z M 558841 227374 q -8962 0 -12418 2050 q -3456 2050 -3456 6993 q 0 3938 2592 6249 q 2592 2311 7053 2311 q 6149 0 9866 -4360 q 3717 -4360 3717 -11594 l 0 -1648 l -7354 0 m 14749 -3054 l 0 25680 l -7395 0 l 0 -6832 q -2532 4099 -6309 6048 q -3778 1949 -9243 1949 q -6912 0 -10991 -3878 q -4079 -3878 -4079 -10388 q 0 -7595 5084 -11453 q 5084 -3858 15171 -3858 l 10368 0 l 0 -723 q 0 -5104 -3356 -7897 q -3356 -2793 -9424 -2793 q -3858 0 -7515 924 q -3657 924 -7033 2773 l 0 -6832 q 4059 -1567 7877 -2351 q 3818 -784 7435 -784 q 9766 0 14588 5064 q 4823 5064 4823 15352 Z M 607549 254180 q -3135 8038 -6109 10489 q -2974 2451 -7957 2451 l -5908 0 l 0 -6189 l 4340 0 q 3054 0 4742 -1447 q 1688 -1447 3737 -6832 l 1326 -3376 l -18205 -44287 l 7837 0 l 14066 35204 l 14066 -35204 l 7837 0 l -19772 49190 Z M 676028 225646 l 0 3617 l -33999 0 q 482 7636 4601 11634 q 4119 3999 11474 3999 q 4260 0 8259 -1045 q 3999 -1045 7937 -3135 l 0 6993 q -3979 1688 -8158 2572 q -4180 884 -8480 884 q -10770 0 -17060 -6269 q -6289 -6269 -6289 -16959 q 0 -11052 5968 -17542 q 5968 -6490 16095 -6490 q 9082 0 14367 5847 q 5285 5847 5285 15894 m -7395 -2170 q -80 -6068 -3396 -9685 q -3315 -3617 -8781 -3617 q -6189 0 -9906 3496 q -3717 3496 -4280 9846 l 26363 -40 Z M 714246 211902 q -1246 -723 -2713 -1065 q -1467 -342 -3235 -342 q -6269 0 -9625 4079 q -3356 4079 -3356 11715 l 0 23711 l -7435 0 l 0 -45010 l 7435 0 l 0 6993 q 2331 -4099 6068 -6088 q 3737 -1989 9082 -1989 q 764 0 1688 100 q 924 100 2050 301 l 40 7595 Z M 730442 221346 l 0 21983 l 13021 0 q 6551 0 9705 -2713 q 3155 -2713 3155 -8299 q 0 -5626 -3155 -8299 q -3155 -2672 -9705 -2672 l -13021 0 m 0 -24675 l 0 18084 l 12016 0 q 5948 0 8861 -2230 q 2914 -2230 2914 -6812 q 0 -4541 -2914 -6792 q -2914 -2251 -8861 -2251 l -12016 0 m -8118 -6671 l 20737 0 q 9283 0 14307 3858 q 5023 3858 5023 10971 q 0 5506 -2572 8761 q -2572 3255 -7555 4059 q 5988 1286 9303 5365 q 3315 4079 3315 10188 q 0 8038 -5466 12418 q -5466 4380 -15553 4380 l -21541 0 l 0 -60000 Z" class="C2" /></g></svg>